%
M48
M72
T01C0.00787
T02C0.01181
T03C0.01969
%
T01
X128096Y77614
X130596Y77614
X133096Y77614
X135596Y77614
X138096Y77614
X140596Y77614
X143096Y77614
X145596Y77614
X148096Y77614
X150596Y77614
X153096Y77614
X155596Y77614
X158884Y78402
X159809Y76433
X164671Y76433
X167565Y76433
X173215Y76827
X179268Y83087
X178077Y88530
X175951Y90321
X174219Y88766
X178874Y91748
X168520Y90508
X168175Y88372
X165596Y88726
X165951Y90833
X163411Y90793
X163096Y88726
X160596Y88726
X160596Y90833
X158096Y90833
X158096Y88726
X155596Y88726
X155596Y90833
X153096Y90833
X153096Y88726
X150596Y88726
X150596Y90833
X148096Y90833
X148096Y88726
X145596Y88726
X145596Y90833
X143096Y90833
X143096Y88726
X140596Y88726
X140596Y90833
X138096Y90833
X138096Y88726
X135596Y88726
X135596Y90833
X133096Y90833
X133096Y88726
X130596Y88726
X130596Y90833
X125331Y90173
X120596Y93254
X120596Y95616
X124150Y100409
X130596Y102732
X133087Y103126
X135567Y101945
X137929Y101984
X140488Y101984
X143116Y101945
X145616Y101945
X148116Y101945
X150596Y101945
X153283Y101984
X155596Y101945
X158096Y101945
X160596Y101945
X163096Y101945
X165596Y101945
X168096Y102299
X172496Y101984
X219809Y87348
X219809Y83805
X225724Y90173
X230990Y90833
X230990Y88726
X233490Y88726
X233490Y90833
X235990Y90833
X235990Y88726
X238490Y88726
X238490Y90833
X240990Y90833
X240990Y88726
X243490Y88726
X243490Y90833
X245990Y90833
X245990Y88726
X248490Y88726
X248490Y90833
X250990Y90833
X250990Y88726
X253490Y88726
X253490Y90833
X255990Y90833
X255990Y88726
X258490Y88726
X258490Y90833
X260990Y90833
X260990Y88726
X263490Y88726
X263805Y90793
X266345Y90833
X265990Y88726
X268569Y88372
X268913Y90508
X274612Y88766
X276345Y90321
X278470Y88530
X279268Y91748
X279661Y83087
X273608Y76827
X267959Y76433
X265065Y76433
X260203Y76433
X259278Y78402
X255990Y77614
X253490Y77614
X250990Y77614
X248490Y77614
X245990Y77614
X243490Y77614
X240990Y77614
X238490Y77614
X235990Y77614
X233490Y77614
X230990Y77614
X228490Y77614
X220990Y93254
X220990Y95616
X224543Y100409
X230990Y102732
X233480Y103126
X235961Y101945
X238323Y101984
X240882Y101984
X243510Y101945
X246010Y101945
X248510Y101945
X250990Y101945
X253677Y101984
X255990Y101945
X258490Y101945
X260990Y101945
X263490Y101945
X265990Y101945
X268490Y102299
X272890Y101984
X317447Y95616
X317447Y93254
X322181Y90173
X327447Y90833
X327447Y88726
X329947Y88726
X329947Y90833
X332447Y90833
X332447Y88726
X334947Y88726
X334947Y90833
X337447Y90833
X337447Y88726
X339947Y88726
X339947Y90833
X342447Y90833
X342447Y88726
X344947Y88726
X344947Y90833
X347447Y90833
X347447Y88726
X349947Y88726
X349947Y90833
X352447Y90833
X352447Y88726
X354947Y88726
X354947Y90833
X357447Y90833
X357447Y88726
X359947Y88726
X360262Y90793
X362801Y90833
X362447Y88726
X365026Y88372
X365370Y90508
X371069Y88766
X372801Y90321
X374927Y88530
X375724Y91748
X376118Y83087
X370065Y76827
X364415Y76433
X361522Y76433
X356659Y76433
X355734Y78402
X352447Y77614
X349947Y77614
X347447Y77614
X344947Y77614
X342447Y77614
X339947Y77614
X337447Y77614
X334947Y77614
X332447Y77614
X329947Y77614
X327447Y77614
X324947Y77614
X316266Y83805
X316266Y87348
X321000Y100409
X327447Y102732
X329937Y103126
X332417Y101945
X334780Y101984
X337339Y101984
X339967Y101945
X342467Y101945
X344967Y101945
X347447Y101945
X350134Y101984
X352447Y101945
X354947Y101945
X357447Y101945
X359947Y101945
X362447Y101945
X364947Y102299
X369346Y101984
X364415Y155173
X361522Y155173
X356659Y155173
X355734Y157142
X352447Y156354
X349947Y156354
X347447Y156354
X344947Y156354
X342447Y156354
X339947Y156354
X337447Y156354
X334947Y156354
X332447Y156354
X329947Y156354
X327447Y156354
X324947Y156354
X316266Y162545
X316266Y166089
X322181Y168913
X327447Y169573
X327447Y167467
X329947Y167467
X329947Y169573
X332447Y169573
X332447Y167467
X334947Y167467
X334947Y169573
X337447Y169573
X337447Y167467
X339947Y167467
X339947Y169573
X342447Y169573
X342447Y167467
X344947Y167467
X344947Y169573
X347447Y169573
X347447Y167467
X349947Y167467
X349947Y169573
X352447Y169573
X352447Y167467
X354947Y167467
X354947Y169573
X357447Y169573
X357447Y167467
X359947Y167467
X360262Y169533
X362801Y169573
X362447Y167467
X365026Y167112
X365370Y169248
X371069Y167506
X372801Y169061
X374927Y167270
X375724Y170488
X376118Y161827
X370065Y155567
X369346Y180724
X364947Y181039
X362447Y180685
X359947Y180685
X357447Y180685
X354947Y180685
X352447Y180685
X350134Y180724
X347447Y180685
X344967Y180685
X342467Y180685
X339967Y180685
X337339Y180724
X334780Y180724
X332417Y180685
X329937Y181866
X327447Y181472
X321000Y179150
X317447Y174356
X317447Y171994
X277299Y170488
X274376Y169061
X272644Y167506
X276502Y167270
X277693Y161827
X271640Y155567
X265990Y155173
X263096Y155173
X258234Y155173
X257309Y157142
X254022Y156354
X251522Y156354
X249022Y156354
X246522Y156354
X244022Y156354
X241522Y156354
X239022Y156354
X236522Y156354
X234022Y156354
X231522Y156354
X229022Y156354
X226522Y156354
X217841Y162545
X217841Y166089
X223756Y168913
X229022Y169573
X229022Y167467
X231522Y167467
X231522Y169573
X234022Y169573
X234022Y167467
X236522Y167467
X236522Y169573
X239022Y169573
X239022Y167467
X241522Y167467
X241522Y169573
X244022Y169573
X244022Y167467
X246522Y167467
X246522Y169573
X249022Y169573
X249022Y167467
X251522Y167467
X251522Y169573
X254022Y169573
X254022Y167467
X256522Y167467
X256522Y169573
X259022Y169573
X259022Y167467
X261522Y167467
X261837Y169533
X264376Y169573
X264022Y167467
X266600Y167112
X266945Y169248
X266522Y181039
X264022Y180685
X261522Y180685
X259022Y180685
X256522Y180685
X254022Y180685
X251709Y180724
X249022Y180685
X246541Y180685
X244041Y180685
X241541Y180685
X238913Y180724
X236354Y180724
X233992Y180685
X231512Y181866
X229022Y181472
X222575Y179150
X219022Y174356
X219022Y171994
X178874Y170488
X175951Y169061
X174219Y167506
X178077Y167270
X179268Y161827
X173215Y155567
X167565Y155173
X164671Y155173
X159809Y155173
X158884Y157142
X155596Y156354
X153096Y156354
X150596Y156354
X148096Y156354
X145596Y156354
X143096Y156354
X140596Y156354
X138096Y156354
X135596Y156354
X133096Y156354
X130596Y156354
X128096Y156354
X119415Y162545
X119415Y166089
X125331Y168913
X130596Y169573
X130596Y167467
X133096Y167467
X133096Y169573
X135596Y169573
X135596Y167467
X138096Y167467
X138096Y169573
X140596Y169573
X140596Y167467
X143096Y167467
X143096Y169573
X145596Y169573
X145596Y167467
X148096Y167467
X148096Y169573
X150596Y169573
X150596Y167467
X153096Y167467
X153096Y169573
X155596Y169573
X155596Y167467
X158096Y167467
X158096Y169573
X160596Y169573
X160596Y167467
X163096Y167467
X163411Y169533
X165951Y169573
X165596Y167467
X168175Y167112
X168520Y169248
X168096Y181039
X165596Y180685
X163096Y180685
X160596Y180685
X158096Y180685
X155596Y180685
X153283Y180724
X150596Y180685
X148116Y180685
X145616Y180685
X143116Y180685
X140488Y180724
X137929Y180724
X135567Y180685
X133087Y181866
X130596Y181472
X124150Y179150
X120596Y174356
X120596Y171994
X172496Y180724
X167565Y233913
X164671Y233913
X159809Y233913
X158884Y235882
X155596Y235094
X153096Y235094
X150596Y235094
X148096Y235094
X145596Y235094
X143096Y235094
X140596Y235094
X138096Y235094
X135596Y235094
X133096Y235094
X130596Y235094
X128096Y235094
X119415Y241285
X119415Y244829
X125331Y247654
X130596Y248313
X130596Y246207
X133096Y246207
X133096Y248313
X135596Y248313
X135596Y246207
X138096Y246207
X138096Y248313
X140596Y248313
X140596Y246207
X143096Y246207
X143096Y248313
X145596Y248313
X145596Y246207
X148096Y246207
X148096Y248313
X150596Y248313
X150596Y246207
X153096Y246207
X153096Y248313
X155596Y248313
X155596Y246207
X158096Y246207
X158096Y248313
X160596Y248313
X160596Y246207
X163096Y246207
X163411Y248274
X165951Y248313
X165596Y246207
X168175Y245852
X168520Y247988
X174219Y246246
X175951Y247801
X178077Y246010
X178874Y249228
X179268Y240567
X173215Y234307
X172496Y259465
X168096Y259780
X165596Y259425
X163096Y259425
X160596Y259425
X158096Y259425
X155596Y259425
X153283Y259465
X150596Y259425
X148116Y259425
X145616Y259425
X143116Y259425
X140488Y259465
X137929Y259465
X135567Y259425
X133087Y260606
X130596Y260213
X124150Y257890
X120596Y253096
X120596Y250734
X217841Y244829
X217841Y241285
X223756Y247654
X229022Y248313
X229022Y246207
X231522Y246207
X231522Y248313
X234022Y248313
X234022Y246207
X236522Y246207
X236522Y248313
X239022Y248313
X239022Y246207
X241522Y246207
X241522Y248313
X244022Y248313
X244022Y246207
X246522Y246207
X246522Y248313
X249022Y248313
X249022Y246207
X251522Y246207
X251522Y248313
X254022Y248313
X254022Y246207
X256522Y246207
X256522Y248313
X259022Y248313
X259022Y246207
X261522Y246207
X261837Y248274
X264376Y248313
X264022Y246207
X266600Y245852
X266945Y247988
X272644Y246246
X274376Y247801
X276502Y246010
X277299Y249228
X277693Y240567
X271640Y234307
X265990Y233913
X263096Y233913
X258234Y233913
X257309Y235882
X254022Y235094
X251522Y235094
X249022Y235094
X246522Y235094
X244022Y235094
X241522Y235094
X239022Y235094
X236522Y235094
X234022Y235094
X231522Y235094
X229022Y235094
X226522Y235094
X219022Y250734
X219022Y253096
X222575Y257890
X229022Y260213
X231512Y260606
X233992Y259425
X236354Y259465
X238913Y259465
X241541Y259425
X244041Y259425
X246541Y259425
X249022Y259425
X251709Y259465
X254022Y259425
X256522Y259425
X259022Y259425
X261522Y259425
X264022Y259425
X266522Y259780
X270921Y259465
X317447Y253096
X317447Y250734
X322181Y247654
X327447Y248313
X327447Y246207
X329947Y246207
X329947Y248313
X332447Y248313
X332447Y246207
X334947Y246207
X334947Y248313
X337447Y248313
X337447Y246207
X339947Y246207
X339947Y248313
X342447Y248313
X342447Y246207
X344947Y246207
X344947Y248313
X347447Y248313
X347447Y246207
X349947Y246207
X349947Y248313
X352447Y248313
X352447Y246207
X354947Y246207
X354947Y248313
X357447Y248313
X357447Y246207
X359947Y246207
X360262Y248274
X362801Y248313
X362447Y246207
X365026Y245852
X365370Y247988
X371069Y246246
X372801Y247801
X374927Y246010
X375724Y249228
X376118Y240567
X370065Y234307
X364415Y233913
X361522Y233913
X356659Y233913
X355734Y235882
X352447Y235094
X349947Y235094
X347447Y235094
X344947Y235094
X342447Y235094
X339947Y235094
X337447Y235094
X334947Y235094
X332447Y235094
X329947Y235094
X327447Y235094
X324947Y235094
X316266Y241285
X316266Y244829
X321000Y257890
X327447Y260213
X329937Y260606
X332417Y259425
X334780Y259465
X337339Y259465
X339967Y259425
X342467Y259425
X344967Y259425
X347447Y259425
X350134Y259465
X352447Y259425
X354947Y259425
X357447Y259425
X359947Y259425
X362447Y259425
X364947Y259780
X369346Y259465
X270921Y180724
X119415Y87348
X119415Y83805
T02
X129071Y74031
X136945Y74031
X144819Y74031
X152693Y74031
X160567Y74031
X168441Y74031
X168441Y105528
X160567Y105528
X152693Y105528
X144819Y105528
X136945Y105528
X127890Y105528
X129071Y152772
X136945Y152772
X144819Y152772
X152693Y152772
X160567Y152772
X168441Y152772
X168441Y184268
X160567Y184268
X152693Y184268
X144819Y184268
X136945Y184268
X127890Y184268
X129071Y231512
X136945Y231512
X144819Y231512
X152693Y231512
X160567Y231512
X168441Y231512
X168441Y263008
X160567Y263008
X152693Y263008
X144819Y263008
X136945Y263008
X127890Y263008
X226315Y263008
X235370Y263008
X243244Y263008
X251118Y263008
X258992Y263008
X266866Y263008
X266866Y231512
X258992Y231512
X251118Y231512
X243244Y231512
X235370Y231512
X227496Y231512
X226315Y184268
X235370Y184268
X243244Y184268
X251118Y184268
X258992Y184268
X266866Y184268
X266866Y152772
X258992Y152772
X251118Y152772
X243244Y152772
X235370Y152772
X227496Y152772
X228283Y105528
X237339Y105528
X245213Y105528
X253087Y105528
X260961Y105528
X268835Y105528
X268835Y74031
X260961Y74031
X253087Y74031
X245213Y74031
X237339Y74031
X229465Y74031
X324740Y105528
X333795Y105528
X341669Y105528
X349543Y105528
X357417Y105528
X365291Y105528
X365291Y74031
X357417Y74031
X349543Y74031
X341669Y74031
X333795Y74031
X325921Y74031
X325921Y152772
X333795Y152772
X341669Y152772
X349543Y152772
X357417Y152772
X365291Y152772
X365291Y184268
X357417Y184268
X349543Y184268
X341669Y184268
X333795Y184268
X324740Y184268
X325921Y231512
X333795Y231512
X341669Y231512
X349543Y231512
X357417Y231512
X365291Y231512
X365291Y263008
X357417Y263008
X349543Y263008
X341669Y263008
X333795Y263008
X324740Y263008
T03
X119425Y77181
X118638Y101197
X124150Y103953
X174543Y103953
X180055Y101197
X179268Y77181
X219819Y77181
X219032Y101197
X224543Y103953
X274937Y103953
X280449Y101197
X279661Y77181
X316276Y77181
X315488Y101197
X321000Y103953
X371394Y103953
X376906Y101197
X376118Y77181
X376118Y155921
X376906Y179937
X371394Y182693
X321000Y182693
X315488Y179937
X316276Y155921
X278480Y179937
X272969Y182693
X277693Y155921
X222575Y182693
X217063Y179937
X217850Y155921
X179268Y155921
X180055Y179937
X174543Y182693
X124150Y182693
X118638Y179937
X119425Y155921
X119425Y234661
X118638Y258677
X124150Y261433
X174543Y261433
X180055Y258677
X179268Y234661
X217850Y234661
X217063Y258677
X222575Y261433
X272969Y261433
X278480Y258677
X277693Y234661
X316276Y234661
X315488Y258677
X321000Y261433
X371394Y261433
X376906Y258677
X376118Y234661
M30
